<mxfile host="Electron" agent="Mozilla/5.0 (Windows NT 10.0; Win64; x64) AppleWebKit/537.36 (KHTML, like Gecko) draw.io/26.0.9 Chrome/128.0.6613.186 Electron/32.2.5 Safari/537.36" version="26.0.9">
  <diagram id="C5RBs43oDa-KdzZeNtuy" name="Page-1">
    <mxGraphModel dx="1434" dy="836" grid="1" gridSize="10" guides="1" tooltips="1" connect="1" arrows="1" fold="1" page="1" pageScale="1" pageWidth="827" pageHeight="1169" math="0" shadow="0">
      <root>
        <mxCell id="WIyWlLk6GJQsqaUBKTNV-0" />
        <mxCell id="WIyWlLk6GJQsqaUBKTNV-1" parent="WIyWlLk6GJQsqaUBKTNV-0" />
        <mxCell id="1W1M7LlvMl_Cy7b3sHZ2-0" value="Start" style="strokeWidth=2;html=1;shape=mxgraph.flowchart.start_2;whiteSpace=wrap;" vertex="1" parent="WIyWlLk6GJQsqaUBKTNV-1">
          <mxGeometry x="130" y="40" width="100" height="100" as="geometry" />
        </mxCell>
        <mxCell id="1W1M7LlvMl_Cy7b3sHZ2-1" value="set range&lt;div&gt;of program&lt;/div&gt;" style="shape=parallelogram;html=1;strokeWidth=2;perimeter=parallelogramPerimeter;whiteSpace=wrap;rounded=1;arcSize=12;size=0.23;" vertex="1" parent="WIyWlLk6GJQsqaUBKTNV-1">
          <mxGeometry x="240" y="170" width="120" height="72" as="geometry" />
        </mxCell>
        <mxCell id="1W1M7LlvMl_Cy7b3sHZ2-2" style="edgeStyle=orthogonalEdgeStyle;rounded=0;orthogonalLoop=1;jettySize=auto;html=1;entryX=0.575;entryY=0.056;entryDx=0;entryDy=0;entryPerimeter=0;" edge="1" parent="WIyWlLk6GJQsqaUBKTNV-1" source="1W1M7LlvMl_Cy7b3sHZ2-0" target="1W1M7LlvMl_Cy7b3sHZ2-1">
          <mxGeometry relative="1" as="geometry" />
        </mxCell>
        <mxCell id="1W1M7LlvMl_Cy7b3sHZ2-3" value="x is divisible&lt;div&gt;by 3 and 5&lt;/div&gt;" style="strokeWidth=2;html=1;shape=mxgraph.flowchart.decision;whiteSpace=wrap;" vertex="1" parent="WIyWlLk6GJQsqaUBKTNV-1">
          <mxGeometry x="210" y="300" width="100" height="100" as="geometry" />
        </mxCell>
        <mxCell id="1W1M7LlvMl_Cy7b3sHZ2-4" value="FizzBuzz" style="strokeWidth=2;html=1;shape=mxgraph.flowchart.display;whiteSpace=wrap;" vertex="1" parent="WIyWlLk6GJQsqaUBKTNV-1">
          <mxGeometry x="60" y="440" width="100" height="60" as="geometry" />
        </mxCell>
        <mxCell id="1W1M7LlvMl_Cy7b3sHZ2-5" value="Fizz" style="strokeWidth=2;html=1;shape=mxgraph.flowchart.display;whiteSpace=wrap;" vertex="1" parent="WIyWlLk6GJQsqaUBKTNV-1">
          <mxGeometry x="370" y="440" width="100" height="60" as="geometry" />
        </mxCell>
        <mxCell id="1W1M7LlvMl_Cy7b3sHZ2-6" value="Buzz" style="strokeWidth=2;html=1;shape=mxgraph.flowchart.display;whiteSpace=wrap;" vertex="1" parent="WIyWlLk6GJQsqaUBKTNV-1">
          <mxGeometry x="540" y="440" width="100" height="60" as="geometry" />
        </mxCell>
        <mxCell id="1W1M7LlvMl_Cy7b3sHZ2-7" style="edgeStyle=orthogonalEdgeStyle;rounded=0;orthogonalLoop=1;jettySize=auto;html=1;entryX=0.5;entryY=0;entryDx=0;entryDy=0;entryPerimeter=0;" edge="1" parent="WIyWlLk6GJQsqaUBKTNV-1" source="1W1M7LlvMl_Cy7b3sHZ2-1" target="1W1M7LlvMl_Cy7b3sHZ2-3">
          <mxGeometry relative="1" as="geometry" />
        </mxCell>
        <mxCell id="1W1M7LlvMl_Cy7b3sHZ2-8" style="edgeStyle=orthogonalEdgeStyle;rounded=0;orthogonalLoop=1;jettySize=auto;html=1;entryX=0.5;entryY=0;entryDx=0;entryDy=0;entryPerimeter=0;" edge="1" parent="WIyWlLk6GJQsqaUBKTNV-1" source="1W1M7LlvMl_Cy7b3sHZ2-3" target="1W1M7LlvMl_Cy7b3sHZ2-4">
          <mxGeometry relative="1" as="geometry" />
        </mxCell>
        <mxCell id="1W1M7LlvMl_Cy7b3sHZ2-9" value="True" style="edgeLabel;html=1;align=center;verticalAlign=middle;resizable=0;points=[];" vertex="1" connectable="0" parent="1W1M7LlvMl_Cy7b3sHZ2-8">
          <mxGeometry x="-0.5579" y="-1" relative="1" as="geometry">
            <mxPoint as="offset" />
          </mxGeometry>
        </mxCell>
        <mxCell id="1W1M7LlvMl_Cy7b3sHZ2-13" value="False" style="edgeStyle=orthogonalEdgeStyle;rounded=0;orthogonalLoop=1;jettySize=auto;html=1;" edge="1" parent="WIyWlLk6GJQsqaUBKTNV-1" source="1W1M7LlvMl_Cy7b3sHZ2-10" target="1W1M7LlvMl_Cy7b3sHZ2-11">
          <mxGeometry relative="1" as="geometry" />
        </mxCell>
        <mxCell id="1W1M7LlvMl_Cy7b3sHZ2-10" value="x is divisible&lt;div&gt;by 3&lt;/div&gt;" style="strokeWidth=2;html=1;shape=mxgraph.flowchart.decision;whiteSpace=wrap;" vertex="1" parent="WIyWlLk6GJQsqaUBKTNV-1">
          <mxGeometry x="380" y="242" width="100" height="100" as="geometry" />
        </mxCell>
        <mxCell id="1W1M7LlvMl_Cy7b3sHZ2-15" value="True" style="edgeStyle=orthogonalEdgeStyle;rounded=0;orthogonalLoop=1;jettySize=auto;html=1;" edge="1" parent="WIyWlLk6GJQsqaUBKTNV-1" source="1W1M7LlvMl_Cy7b3sHZ2-11" target="1W1M7LlvMl_Cy7b3sHZ2-6">
          <mxGeometry relative="1" as="geometry" />
        </mxCell>
        <mxCell id="1W1M7LlvMl_Cy7b3sHZ2-17" value="False" style="edgeStyle=orthogonalEdgeStyle;rounded=0;orthogonalLoop=1;jettySize=auto;html=1;" edge="1" parent="WIyWlLk6GJQsqaUBKTNV-1" source="1W1M7LlvMl_Cy7b3sHZ2-11" target="1W1M7LlvMl_Cy7b3sHZ2-16">
          <mxGeometry relative="1" as="geometry" />
        </mxCell>
        <mxCell id="1W1M7LlvMl_Cy7b3sHZ2-11" value="x is divisible&lt;div&gt;by 5&lt;/div&gt;" style="strokeWidth=2;html=1;shape=mxgraph.flowchart.decision;whiteSpace=wrap;" vertex="1" parent="WIyWlLk6GJQsqaUBKTNV-1">
          <mxGeometry x="540" y="242" width="100" height="100" as="geometry" />
        </mxCell>
        <mxCell id="1W1M7LlvMl_Cy7b3sHZ2-12" value="False" style="edgeStyle=orthogonalEdgeStyle;rounded=0;orthogonalLoop=1;jettySize=auto;html=1;entryX=0;entryY=0.5;entryDx=0;entryDy=0;entryPerimeter=0;" edge="1" parent="WIyWlLk6GJQsqaUBKTNV-1" source="1W1M7LlvMl_Cy7b3sHZ2-3" target="1W1M7LlvMl_Cy7b3sHZ2-10">
          <mxGeometry relative="1" as="geometry" />
        </mxCell>
        <mxCell id="1W1M7LlvMl_Cy7b3sHZ2-14" value="True" style="edgeStyle=orthogonalEdgeStyle;rounded=0;orthogonalLoop=1;jettySize=auto;html=1;entryX=0.57;entryY=0;entryDx=0;entryDy=0;entryPerimeter=0;" edge="1" parent="WIyWlLk6GJQsqaUBKTNV-1" source="1W1M7LlvMl_Cy7b3sHZ2-10" target="1W1M7LlvMl_Cy7b3sHZ2-5">
          <mxGeometry relative="1" as="geometry" />
        </mxCell>
        <mxCell id="1W1M7LlvMl_Cy7b3sHZ2-16" value="Display&lt;div&gt;number&lt;/div&gt;" style="strokeWidth=2;html=1;shape=mxgraph.flowchart.display;whiteSpace=wrap;" vertex="1" parent="WIyWlLk6GJQsqaUBKTNV-1">
          <mxGeometry x="700" y="440" width="100" height="60" as="geometry" />
        </mxCell>
        <mxCell id="1W1M7LlvMl_Cy7b3sHZ2-18" value="Are there&lt;div&gt;more numbers&lt;/div&gt;&lt;div&gt;to run?&lt;/div&gt;" style="strokeWidth=2;html=1;shape=mxgraph.flowchart.decision;whiteSpace=wrap;" vertex="1" parent="WIyWlLk6GJQsqaUBKTNV-1">
          <mxGeometry x="210" y="500" width="100" height="100" as="geometry" />
        </mxCell>
        <mxCell id="1W1M7LlvMl_Cy7b3sHZ2-19" value="Yes" style="edgeStyle=orthogonalEdgeStyle;rounded=0;orthogonalLoop=1;jettySize=auto;html=1;entryX=0.5;entryY=1;entryDx=0;entryDy=0;entryPerimeter=0;" edge="1" parent="WIyWlLk6GJQsqaUBKTNV-1" source="1W1M7LlvMl_Cy7b3sHZ2-18" target="1W1M7LlvMl_Cy7b3sHZ2-3">
          <mxGeometry relative="1" as="geometry" />
        </mxCell>
        <mxCell id="1W1M7LlvMl_Cy7b3sHZ2-20" value="End" style="strokeWidth=2;html=1;shape=mxgraph.flowchart.terminator;whiteSpace=wrap;" vertex="1" parent="WIyWlLk6GJQsqaUBKTNV-1">
          <mxGeometry x="440" y="610" width="133.33" height="80" as="geometry" />
        </mxCell>
        <mxCell id="1W1M7LlvMl_Cy7b3sHZ2-21" value="No" style="edgeStyle=orthogonalEdgeStyle;rounded=0;orthogonalLoop=1;jettySize=auto;html=1;entryX=0;entryY=0.5;entryDx=0;entryDy=0;entryPerimeter=0;" edge="1" parent="WIyWlLk6GJQsqaUBKTNV-1" source="1W1M7LlvMl_Cy7b3sHZ2-18" target="1W1M7LlvMl_Cy7b3sHZ2-20">
          <mxGeometry relative="1" as="geometry" />
        </mxCell>
      </root>
    </mxGraphModel>
  </diagram>
</mxfile>
